<svg id="speaker" xmlns="http://www.w3.org/2000/svg" width="512" height="512" viewBox="0 0 512 512">
  <g id="Group_2" data-name="Group 2">
    <g id="Group_1" data-name="Group 1">
      <path id="Path_1" data-name="Path 1" d="M407.273,0C345.205,0,302.8,35.793,265.379,67.375c-31.162,26.275-58.042,48.989-90.833,48.989h-128C14.569,116.364,0,176.687,0,232.727S14.569,349.091,46.545,349.091h128c32.791,0,59.671,22.714,90.833,48.989,37.423,31.581,79.826,67.375,141.894,67.375C476.02,465.455,512,348.369,512,232.727S476.02,0,407.273,0Zm0,418.909c-19.759,0-58.182-65.722-58.182-186.182S387.514,46.545,407.273,46.545s58.182,65.722,58.182,186.182S427.031,418.909,407.273,418.909Z" fill="#fff"/>
    </g>
  </g>
  <g id="Group_4" data-name="Group 4">
    <g id="Group_3" data-name="Group 3">
      <path id="Path_2" data-name="Path 2" d="M389.958,165.376a11.63,11.63,0,0,0-14.522,10.008,535.792,535.792,0,0,0-3.072,57.344,529.206,529.206,0,0,0,3.1,57.321,11.605,11.605,0,0,0,11.566,10.38,11.511,11.511,0,0,0,2.932-.372,69.528,69.528,0,0,0,0-134.681Z" fill="#fff"/>
    </g>
  </g>
  <g id="Group_6" data-name="Group 6">
    <g id="Group_5" data-name="Group 5">
      <path id="Path_3" data-name="Path 3" d="M217.321,430.545A15.366,15.366,0,0,1,202.706,420l-13.1-39.261c-1.4-4.189-6.447-7.4-10.822-8.029a33.205,33.205,0,0,0-4.236-.349h-79.8a11.646,11.646,0,0,0-11.194,14.824l26.019,91.043A46.757,46.757,0,0,0,154.321,512h63A38.735,38.735,0,0,0,256,473.321v-4.1A38.736,38.736,0,0,0,217.321,430.545Z" fill="#fff"/>
    </g>
  </g>
</svg>
